<?xml version="1.0"?>
<svg xmlns:rdf="http://www.w3.org/1999/02/22-rdf-syntax-ns#" xmlns="http://www.w3.org/2000/svg" xmlns:cc="http://creativecommons.org/ns#" xmlns:xlink="http://www.w3.org/1999/xlink" xmlns:dc="http://purl.org/dc/elements/1.1/" id="svg3597" viewBox="0 0 226.37 236.42" version="1.1">
  <defs id="defs3599">
    <radialGradient id="radialGradient7605" gradientUnits="userSpaceOnUse" cy="288.76" cx="355.54" gradientTransform="matrix(2.286 .045527 -.046868 2.3536 -442.4 -407.54)" r=".77651">
      <stop id="stop7062" stop-color="#ff47ff" offset="0"/>
      <stop id="stop7064" stop-color="#2b0000" offset="1"/>
    </radialGradient>
    <linearGradient id="linearGradient7607" y2="202.36" xlink:href="#linearGradient3136" gradientUnits="userSpaceOnUse" x2="216.73" gradientTransform="matrix(.0032054 .0010064 -.0010064 .0032054 356.11 286.35)" y1="1019.8" x1="986.22"/>
    <linearGradient id="linearGradient3136">
      <stop id="stop3138" stop-color="#fff" offset="0"/>
      <stop id="stop3140" stop-color="#fff" stop-opacity="0" offset="1"/>
    </linearGradient>
    <linearGradient id="linearGradient7609" y2="529.76" xlink:href="#linearGradient3136" gradientUnits="userSpaceOnUse" x2="532.86" gradientTransform="matrix(.0029072 .00091276 -.00091276 .0029072 356.17 286.5)" y1="69.929" x1="221.35"/>
    <linearGradient id="linearGradient7611" y2="175.06" xlink:href="#linearGradient3136" gradientUnits="userSpaceOnUse" x2="158.99" gradientTransform="matrix(.033979 0 0 .033979 350.35 282.84)" y1="135.85" x1="158.99"/>
    <linearGradient id="linearGradient7613" y2="175.06" xlink:href="#linearGradient3136" gradientUnits="userSpaceOnUse" x2="158.99" gradientTransform="matrix(-.026872 .020796 .020796 .026872 358.87 279.87)" y1="138.49" x1="158.83"/>
    <filter id="filter7313" color-interpolation-filters="sRGB">
      <feGaussianBlur id="feGaussianBlur7315" stdDeviation="0.013956041"/>
    </filter>
    <linearGradient id="linearGradient7615" y2="152.29" xlink:href="#linearGradient3136" gradientUnits="userSpaceOnUse" x2="181.51" gradientTransform="matrix(0 .033979 -.033979 0 361.8 281.36)" y1="156.59" x1="165.82"/>
    <linearGradient id="linearGradient7617" y2="175.06" xlink:href="#linearGradient3136" gradientUnits="userSpaceOnUse" x2="158.99" gradientTransform="matrix(.010563 -.032296 .032296 .010563 349.88 292.6)" y1="127.12" x1="159.77"/>
    <linearGradient id="linearGradient3595" y2="175.59" xlink:href="#linearGradient3136" gradientUnits="userSpaceOnUse" y1="143.06" gradientTransform="matrix(-.010563 -.032296 -.032296 .010563 364.87 292.33)" x2="156.44" x1="179.51"/>
  </defs>
  <g id="layer1" transform="translate(1596.2 790.38)">
    <g id="g7585" transform="matrix(72.854 0 0 72.854 -27494 -21673)">
      <path id="path7587" opacity=".858" d="m357.43 289.88-1.9126-0.59294-0.0271-2.0022 1.8958-0.6445 1.1988 1.6039-1.155 1.6358z" fill="url(#radialGradient7605)"/>
      <path id="path7589" opacity=".65" d="m357.24 289.03-1.1999-0.37201-0.0173-1.2561 1.1894-0.40433 0.75207 1.0062-0.72457 1.0262z" fill="url(#linearGradient7607)"/>
      <path id="path7591" opacity=".65" d="m356.1 288.59-0.0152-1.1392 1.0787-0.36671 0.68212 0.91261c-0.41546 0.26016-0.49553 0.00019-0.89781-0.0219-0.40228-0.0221-0.59934 0.3273-0.84786 0.61517z" fill="url(#linearGradient7609)"/>
      <path id="path7593" opacity=".65" d="m355.55 287.33 0.44386 0.0969 0.009 1.2323-0.43447 0.52082c-0.0137-0.41148-0.0174-1.7679-0.0184-1.8501z" fill="url(#linearGradient7611)"/>
      <path id="path7595" opacity=".65021" d="m357.39 286.74-0.10705 0.23017 0.74051 1.0251 0.45923 0.20118z" fill="url(#linearGradient7613)"/>
      <path id="path7597" opacity=".50617" filter="url(#filter7313)" d="m356.48 289.56c-0.51417-0.15953-0.93591-0.29111-0.9372-0.29241-0.003-0.002-0.0289-1.8607-0.0273-1.9258l0.00092-0.0387 0.92775-0.31547c0.8661-0.2945 0.92816-0.31503 0.93418-0.30892 0.005 0.005 0.7695 1.027 1.0882 1.4547l0.0836 0.11222-0.56317 0.79794c-0.30975 0.43886-0.5652 0.79986-0.56766 0.80222-0.003 0.003-0.25515-0.0735-0.93932-0.28576zm0.85464 0.23362c-0.00057-0.0271-0.0811-0.71259-0.084-0.71529-0.005-0.005-1.2245-0.37613-1.2306-0.37473-0.006 0.001-0.44059 0.54598-0.43808 0.54849 0.002 0.002 1.742 0.54775 1.7479 0.54809 0.003 0.00015 0.005-0.003 0.005-0.007zm0.62123-0.75924c0.29542-0.4126 0.5384-0.75248 0.53998-0.75528 0.002-0.004-0.0619-0.0357-0.24185-0.12091-0.1346-0.0637-0.24596-0.11444-0.24748-0.11275-0.002 0.002-0.15441 0.22279-0.3398 0.49135-0.18538 0.26855-0.34204 0.49531-0.34813 0.5039l-0.0111 0.0156 0.0527 0.36046c0.029 0.19826 0.0527 0.36217 0.0527 0.36426 0 0.002 0.001 0.004 0.003 0.004 0.002-0.00007 0.24463-0.33771 0.54004-0.75032zm-2.1679-0.11478 0.21531-0.25781-0.003-0.4961c-0.002-0.27285-0.004-0.55132-0.005-0.61882l-0.002-0.12273-0.20898-0.0457c-0.11495-0.0251-0.215-0.047-0.22233-0.0486l-0.0134-0.003 0.003 0.52096c0.004 0.80115 0.0116 1.3331 0.0185 1.3307 0.002-0.00062 0.10005-0.11713 0.21847-0.25893zm1.8131-0.39922c0.19836-0.2808 0.36118-0.51256 0.36181-0.51501 0.00091-0.004-0.73008-0.98691-0.7471-1.005-0.004-0.004-0.11223 0.0314-0.59819 0.19653-0.32634 0.11091-0.59439 0.20287-0.59567 0.20435-0.003 0.003 0.0145 1.2544 0.0173 1.2573 0.002 0.002 1.1898 0.37147 1.1966 0.37202 0.003 0.0002 0.16688-0.22938 0.36523-0.51018zm0.87926-0.33418c-0.002-0.003-0.24687-0.3292-0.54393-0.72559-0.29704-0.39638-0.54219-0.72296-0.54476-0.72572-0.004-0.004-0.016 0.0192-0.0586 0.111-0.0498 0.10717-0.0535 0.11671-0.0486 0.12488 0.003 0.005 0.16958 0.23617 0.37027 0.51402l0.36487 0.50518 0.22888 0.10043c0.12588 0.0552 0.23041 0.10049 0.23228 0.10056 0.002 0.00007 0.002-0.002-0.00042-0.005zm-1.8708-1.0219 0.61655-0.222 0.0625-0.1122c0.0344-0.0617 0.0619-0.11279 0.0612-0.11349-0.00076-0.00071-0.33096 0.10754-0.7338 0.24056-0.40283 0.13302-0.80243 0.26482-0.88801 0.29289-0.0856 0.0281-0.15445 0.0522-0.15306 0.0536 0.001 0.001 0.0951 0.0204 0.20833 0.0422 0.11319 0.0218 0.20667 0.0398 0.20774 0.04 0.001 0.00022 0.27941-0.0995 0.61852-0.22161z" fill="#ffe1ff"/>
      <path id="path7599" opacity=".66255" d="m357.35 286.72-0.12417 0.22324-1.2309 0.44307-0.42155-0.08z" fill="url(#linearGradient7615)"/>
      <path id="path7601" opacity=".65" d="m356.02 288.71 1.2327 0.37608 0.0816 0.7211-1.7512-0.54868z" fill="url(#linearGradient7617)"/>
      <path id="path7603" opacity=".65" d="m358.01 288.05-0.69981 1.0126 0.10613 0.72688 1.0808-1.509z" fill="url(#linearGradient3595)"/>
    </g>
  </g>
  <metadata>
    <rdf:RDF>
      <cc:Work>
        <dc:format>image/svg+xml</dc:format>
        <dc:type rdf:resource="http://purl.org/dc/dcmitype/StillImage"/>
        <cc:license rdf:resource="http://creativecommons.org/licenses/publicdomain/"/>
        <dc:publisher>
          <cc:Agent rdf:about="http://openclipart.org/">
            <dc:title>Openclipart</dc:title>
          </cc:Agent>
        </dc:publisher>
      </cc:Work>
      <cc:License rdf:about="http://creativecommons.org/licenses/publicdomain/">
        <cc:permits rdf:resource="http://creativecommons.org/ns#Reproduction"/>
        <cc:permits rdf:resource="http://creativecommons.org/ns#Distribution"/>
        <cc:permits rdf:resource="http://creativecommons.org/ns#DerivativeWorks"/>
      </cc:License>
    </rdf:RDF>
  </metadata>
</svg>
